<svg width="305" height="132" viewBox="0 0 305 132" fill="none" xmlns="http://www.w3.org/2000/svg">
<path d="M56.4098 98.9447V114.213C56.4098 117.192 53.1939 119.056 50.6187 117.563L9.22682 93.5972C8.03342 92.9044 7.29854 91.6257 7.29854 90.2463V42.3202C7.29854 39.341 10.5144 37.4766 13.0896 38.9693L39.7714 54.4198C42.7486 46.6788 48.3952 39.933 56.2528 35.7445C73.5947 26.4981 95.2077 33.1242 104.428 50.521C111.764 64.359 109.265 80.9559 98.7627 91.9407L105.295 101.067L108.724 99.0833C111.256 97.6157 112.813 94.9073 112.813 91.9785V36.1224C112.813 33.1935 111.256 30.4851 108.724 29.0175L60.4988 1.0958C57.9675 -0.371777 54.8521 -0.371777 52.3209 1.0958L4.08894 29.0238C1.55769 30.4914 0 33.1998 0 36.1287V91.9722C0 94.901 1.55769 97.6094 4.08894 99.077L52.3209 126.999C54.8521 128.466 57.9675 128.466 60.4988 126.999L83.1356 113.891L78.9273 102.51C71.0823 103.864 63.1933 102.522 56.4036 98.9447H56.4098Z" fill="#008000"/>
<path d="M91.1063 91.0969C102.531 82.367 106.319 66.3434 99.3658 53.217C91.6339 38.6295 73.5068 33.0678 58.96 40.8214C44.4132 48.575 38.867 66.7528 46.599 81.3403C53.5583 94.4667 68.9217 100.274 82.5327 95.6634L93.7254 125.953C94.0018 126.697 94.3975 127.459 94.8811 128.133C97.8521 132.29 103.624 133.241 107.764 130.262C111.909 127.282 112.857 121.494 109.886 117.343L91.1063 91.0969ZM82.7337 85.6801C72.6149 91.0717 60.0089 87.2107 54.6261 77.0636C49.2433 66.9165 53.0998 54.2752 63.2185 48.8773C73.3373 43.4857 85.9433 47.3467 91.3261 57.5001C96.7026 67.6472 92.8524 80.2885 82.7274 85.6864L82.7337 85.6801Z" fill="#008000"/>
<path d="M143.232 57.9535C141.618 59.2636 139.413 59.9187 136.612 59.9187C133.974 59.9187 131.493 59.27 129.163 57.9787C126.832 56.6812 124.395 54.5649 121.839 51.6234V62.3059C124.1 64.1955 126.455 65.5686 128.905 66.4315C131.355 67.2944 134.099 67.729 137.139 67.729C142.007 67.729 146.002 66.3181 149.13 63.5026C152.252 60.6808 153.809 57.1158 153.809 52.795C153.809 48.9906 152.974 45.7972 151.309 43.2211C149.639 40.645 146.102 37.672 140.695 34.296L139.482 33.5653C132.837 29.4082 129.514 25.9314 129.514 23.1222C129.514 21.1508 130.312 19.5383 131.914 18.2849C133.515 17.0315 135.582 16.4016 138.107 16.4016C140.205 16.4016 142.302 16.8551 144.4 17.7558C146.498 18.6628 148.784 20.1115 151.259 22.1081V12.9185C149.105 11.5958 146.976 10.6195 144.859 9.98332C142.748 9.34716 140.6 9.03223 138.421 9.03223C133.522 9.03223 129.521 10.4431 126.411 13.2649C123.302 16.0867 121.751 19.6958 121.751 24.0922C121.751 27.2226 122.568 29.9184 124.194 32.1859C125.821 34.4534 129.822 37.6468 136.204 41.7787C140.318 44.3989 142.924 46.4019 144.011 47.7876C145.098 49.1796 145.644 50.792 145.644 52.6249C145.644 54.8672 144.834 56.6371 143.22 57.9472L143.232 57.9535Z" fill="#008000"/>
<path d="M162.647 53.5192C162.647 58.81 163.501 62.4506 165.209 64.4473C166.918 66.4439 169.87 67.4454 174.065 67.4454C175.598 67.4454 177.03 67.2879 178.362 66.9793C179.693 66.6707 180.937 66.192 182.093 65.5432V58.5014C181.069 59.1249 180.02 59.5784 178.946 59.8745C177.872 60.1705 176.766 60.3217 175.636 60.3217C173.538 60.3217 172.106 59.8682 171.339 58.9675C170.573 58.0668 170.19 56.0575 170.19 52.9586V35.7949H181.854V29.3199H170.19V20.6152H169.342L156.303 35.0642V35.7949H162.64V53.5255L162.647 53.5192Z" fill="#008000"/>
<path d="M223.749 55.4592C224.773 53.028 225.282 50.5337 225.282 47.9702C225.282 45.4066 224.785 42.925 223.787 40.6008C222.788 38.2829 221.337 36.1477 219.428 34.2077C217.543 32.3748 215.414 30.9639 213.027 29.975C210.647 28.9925 208.147 28.4949 205.54 28.4949C199.994 28.4949 195.302 30.3845 191.452 34.1636C187.602 37.9428 185.68 42.5408 185.68 47.9639C185.68 53.387 187.602 57.9913 191.452 61.7641C195.302 65.5433 199.994 67.4329 205.54 67.4329C208.203 67.4329 210.71 66.9605 213.065 66.0157C215.42 65.0709 217.537 63.6663 219.421 61.8082C221.281 60.0005 222.719 57.8842 223.743 55.4529L223.749 55.4592ZM213.919 56.8575C211.564 59.3266 208.744 60.5611 205.465 60.5611C202.186 60.5611 199.328 59.3329 196.992 56.8764C194.649 54.42 193.481 51.4533 193.481 47.9702C193.481 44.487 194.649 41.6023 196.992 39.1458C199.335 36.6894 202.161 35.4611 205.465 35.4611C208.769 35.4611 211.601 36.6894 213.938 39.1458C216.281 41.6023 217.449 44.5437 217.449 47.9702C217.449 51.3966 216.275 54.3885 213.919 56.8512V56.8575Z" fill="#008000"/>
<path d="M261.529 57.8528C259.833 58.7158 258.118 59.3582 256.385 59.7739C254.651 60.1959 252.867 60.4038 251.04 60.4038C247.057 60.4038 243.842 59.2511 241.392 56.9458C238.942 54.6406 237.718 51.6487 237.718 47.9829C237.718 44.3171 238.924 41.4513 241.329 39.1586C243.735 36.8659 246.85 35.7195 250.675 35.7195C252.421 35.7195 254.142 35.9715 255.819 36.4691C257.503 36.9667 259.205 37.7414 260.926 38.7932V30.8192C259.23 30.0382 257.509 29.4587 255.757 29.0808C254.004 28.7029 252.233 28.5139 250.43 28.5139C244.564 28.5139 239.677 30.3783 235.777 34.1008C231.876 37.8233 229.923 42.4527 229.923 47.9829C229.923 53.5131 231.876 58.3126 235.777 61.9658C239.677 65.6253 244.671 67.4519 250.751 67.4519C252.497 67.4519 254.262 67.2882 256.039 66.9669C257.817 66.6457 259.645 66.1418 261.529 65.4679V57.8591V57.8528Z" fill="#008000"/>
<path d="M276.377 10.0903H268.953V66.7148H276.377V10.0903Z" fill="#008000"/>
<path d="M305 66.7149L286.232 46.3956L301.853 29.3137H292.689L276.622 46.7987L294.824 66.7149H305Z" fill="#008000"/>
<path d="M154.815 97.3577L136.694 74.5693H124.22V131.194H138.182V96.1421L154.815 116.865L171.604 96.1421V131.194H185.491V74.5693H173.017L154.815 97.3577Z" fill="#008000"/>
<path d="M207.481 92.8228H195.415V131.194H207.481V92.8228Z" fill="#008000"/>
<path d="M201.432 73.9206C199.63 73.9206 198.104 74.5505 196.854 75.8039C195.604 77.0573 194.976 78.5879 194.976 80.3956C194.976 82.2033 195.604 83.696 196.854 84.9495C198.104 86.2029 199.63 86.8328 201.432 86.8328C203.235 86.8328 204.793 86.2155 206.036 84.9684C207.274 83.7275 207.896 82.2033 207.896 80.3956C207.896 78.5879 207.274 77.0258 206.036 75.7787C204.799 74.5379 203.267 73.9143 201.432 73.9143V73.9206Z" fill="#008000"/>
<path d="M241.266 92.0542C238.603 92.0542 236.235 92.5014 234.162 93.3895C232.09 94.2776 230.111 95.6948 228.227 97.6411V92.8226H216.236V131.194H228.227V106.749C229.382 104.752 230.683 103.241 232.121 102.214C233.559 101.187 235.117 100.677 236.782 100.677C238.641 100.677 240.004 101.313 240.877 102.579C241.75 103.845 242.19 105.842 242.19 108.569V131.194H254.255V106.906C254.255 102.107 253.137 98.4284 250.908 95.8775C248.672 93.3265 245.462 92.0542 241.26 92.0542H241.266Z" fill="#008000"/>
<path d="M289.297 95.6193C287.815 94.4037 286.207 93.4967 284.474 92.8857C282.74 92.2747 280.818 91.9724 278.72 91.9724C273.362 91.9724 269.022 93.8305 265.681 97.5404C262.346 101.25 260.675 106.088 260.675 112.052C260.675 118.017 262.333 122.836 265.662 126.501C268.985 130.173 273.337 132.006 278.72 132.006C280.9 132.006 282.891 131.685 284.693 131.036C286.496 130.388 288.192 129.392 289.781 128.038V131.194H301.363V74.5693H289.297V95.613V95.6193ZM289.297 120.266C288.142 121.078 287.005 121.677 285.887 122.067C284.769 122.458 283.619 122.653 282.439 122.653C279.669 122.653 277.433 121.683 275.737 119.737C274.041 117.79 273.193 115.233 273.193 112.046C273.193 108.859 274.041 106.195 275.737 104.292C277.433 102.39 279.744 101.439 282.677 101.439C283.833 101.439 284.964 101.641 286.069 102.044C287.174 102.447 288.248 103.045 289.297 103.826V120.259V120.266Z" fill="#008000"/>
</svg>
