<svg width="180" height="210" viewBox="0 0 180 210" fill="none" xmlns="http://www.w3.org/2000/svg">
<path d="M89.81 157.09V181.33C89.81 186.06 84.69 189.02 80.59 186.65L14.69 148.6C12.79 147.5 11.62 145.47 11.62 143.28V67.19C11.62 62.46 16.74 59.5 20.84 61.87L63.32 86.4C68.06 74.11 77.05 63.4 89.56 56.75C117.17 42.07 151.58 52.59 166.26 80.21C177.94 102.18 173.96 128.53 157.24 145.97L167.64 160.46L173.1 157.31C177.13 154.98 179.61 150.68 179.61 146.03V57.35C179.61 52.7 177.13 48.4 173.1 46.07L96.32 1.73999C92.29 -0.590007 87.33 -0.590007 83.3 1.73999L6.51 46.08C2.48 48.41 0 52.71 0 57.36V146.02C0 150.67 2.48 154.97 6.51 157.3L83.3 201.63C87.33 203.96 92.29 203.96 96.32 201.63L132.36 180.82L125.66 162.75C113.17 164.9 100.61 162.77 89.8 157.09H89.81Z" fill="#008000"/>
<path d="M145.05 144.63C163.24 130.77 169.27 105.33 158.2 84.49C145.89 61.33 117.03 52.5 93.87 64.81C70.71 77.12 61.88 105.98 74.2 129.14C85.28 149.98 109.74 159.2 131.41 151.88L149.23 199.97C149.67 201.15 150.3 202.36 151.07 203.43C155.8 210.03 164.99 211.54 171.58 206.81C178.18 202.08 179.69 192.89 174.96 186.3L145.06 144.63H145.05ZM131.72 136.03C115.61 144.59 95.54 138.46 86.97 122.35C78.41 106.24 84.54 86.17 100.65 77.6C116.76 69.04 136.83 75.17 145.4 91.29C153.96 107.4 147.83 127.47 131.72 136.04V136.03Z" fill="#008000"/>
</svg>
